<?xml version="1.0" encoding="UTF-8"?>
<svg version="1.1" xmlns="http://www.w3.org/2000/svg" width="500" height="500">
<path d="M0 0 C1.31626862 2.63253725 0.74103409 3.72862235 0.0625 6.5625 C-1.1562034 12.33882021 -2.33695724 18.02696966 0.15234375 23.5625 C2.42016186 26.55429388 4.48486638 27.61079197 7.875 29.1875 C8.90367187 29.67605469 9.93234375 30.16460937 10.9921875 30.66796875 C12.48105469 31.32732422 12.48105469 31.32732422 14 32 C14.78761719 32.38027344 15.57523438 32.76054687 16.38671875 33.15234375 C20.50725179 34.48889931 24.73377485 34.35853893 29.02929688 34.390625 C34.12205291 34.56440625 37.10375729 35.72834582 41 39 C41.33 39.99 41.66 40.98 42 42 C44.64 42.33 47.28 42.66 50 43 C50.26039063 42.38608398 50.52078125 41.77216797 50.7890625 41.13964844 C52.88012384 37.44487795 56.04255211 36.23239067 60 35 C64.01918819 34.55000744 67.96244699 34.6186153 72 34.75 C73.06089844 34.76804688 74.12179687 34.78609375 75.21484375 34.8046875 C77.81029109 34.85145232 80.40526824 34.92318228 83 35 C83 41.27 83 47.54 83 54 C85.97 54.495 85.97 54.495 89 55 C89 48.4 89 41.8 89 35 C112.1 35 135.2 35 159 35 C159 43.58 159 52.16 159 61 C156 64 156 64 152.28515625 64.5625 C144.92609581 64.31197879 138.12311057 60.82497264 131.4375 58 C130.03379804 57.42043203 128.62950474 56.84229409 127.22460938 56.265625 C123.80942564 54.86018562 120.40266917 53.43551597 117 52 C117.95261719 52.51949219 118.90523438 53.03898437 119.88671875 53.57421875 C121.15389159 54.27820366 122.42080498 54.98265572 123.6875 55.6875 C124.62625977 56.19700195 124.62625977 56.19700195 125.58398438 56.71679688 C129.65931762 58.99983696 132.96493913 61.36712411 136 65 C136.3125 68.8125 136.3125 68.8125 136 72 C142.20186988 73.32076859 145.72290042 73.04867461 151.20703125 69.86328125 C153 69 153 69 155.9375 69.1875 C158 70 158 70 159 71 C159.23192865 72.51469448 159.41215238 74.03754562 159.5625 75.5625 C159.68818359 76.80193359 159.68818359 76.80193359 159.81640625 78.06640625 C159.87699219 78.70449219 159.93757813 79.34257812 160 80 C161.65 80.66 163.3 81.32 165 82 C165 66.49 165 50.98 165 35 C171.538125 34.9175 178.07625 34.835 184.8125 34.75 C186.87346924 34.71358398 188.93443848 34.67716797 191.05786133 34.63964844 C192.69090736 34.62796634 194.32396503 34.61777339 195.95703125 34.609375 C197.22951721 34.5786792 197.22951721 34.5786792 198.52770996 34.54736328 C204.46323301 34.54382865 204.46323301 34.54382865 206.95117188 36.65820312 C208.1637646 39.36564945 209.04919771 41.99325947 209.82421875 44.859375 C210.13037109 45.97441406 210.43652344 47.08945313 210.75195312 48.23828125 C211.06068359 49.39714844 211.36941406 50.55601562 211.6875 51.75 C212.00783203 52.92433594 212.32816406 54.09867188 212.65820312 55.30859375 C213.44670408 58.20368679 214.22697097 61.10074464 215 64 C214.87882812 63.43079834 214.75765625 62.86159668 214.6328125 62.27514648 C214.08127072 59.66407345 213.54057037 57.05086554 213 54.4375 C212.71382813 53.09461914 212.71382813 53.09461914 212.421875 51.72460938 C211.40139829 46.74978542 210.46624141 42.07737859 211 37 C214.30288336 34.79807776 215.27462727 34.76040032 219.10546875 34.8046875 C220.08837891 34.81113281 221.07128906 34.81757813 222.08398438 34.82421875 C223.10814453 34.84097656 224.13230469 34.85773438 225.1875 34.875 C226.22326172 34.88402344 227.25902344 34.89304688 228.32617188 34.90234375 C230.88434685 34.9259214 233.44205748 34.9588297 236 35 C236.06957765 43.25817754 236.12285044 51.51623215 236.15543652 59.77463055 C236.17107795 63.60954343 236.19228805 67.44425545 236.22631836 71.27905273 C236.25896667 74.98137696 236.27686447 78.68350825 236.28463173 82.38596535 C236.29016547 83.79694467 236.30097164 85.20791369 236.31719017 86.61881065 C236.33903449 88.59822627 236.340226 90.57783693 236.34057617 92.55737305 C236.35056892 94.24614815 236.35056892 94.24614815 236.36076355 95.96903992 C235.95353976 99.3903364 235.04884628 101.25415193 233 104 C229.47228331 105.90687389 225.9279804 106.37152314 222 107 C222.99 107.56847656 223.98 108.13695312 225 108.72265625 C243.14015437 119.28030873 243.14015437 119.28030873 246 125 C246.039992 126.99960012 246.04346799 129.00047242 246 131 C240.0937834 133.53315547 235.3414238 134.51661548 228.9375 134.4375 C227.60259521 134.42722778 227.60259521 134.42722778 226.24072266 134.41674805 C202.29732257 133.87726384 135.8511641 131.8511641 119 115 C117.68 117.97 116.36 120.94 115 124 C114.34 123.67 113.68 123.34 113 123 C113.165 122.443125 113.33 121.88625 113.5 121.3125 C114.04068283 118.81184193 114.03384518 116.5510802 114 114 C113.40606445 113.91000732 112.81212891 113.82001465 112.20019531 113.72729492 C106.2728863 112.74548089 100.51916197 111.39890958 94.734375 109.80078125 C94.00617554 109.60056366 93.27797607 109.40034607 92.52770996 109.19406128 C89.49932531 108.3581964 86.47250303 107.51751599 83.45019531 106.65991211 C81.21477624 106.02800755 78.97518112 105.4132647 76.734375 104.80078125 C76.0613031 104.60503006 75.3882312 104.40927887 74.69476318 104.20759583 C69.02016094 102.6776942 64.52206911 103.1593103 59 105 C54.49822407 105.25160249 49.99420057 105.27083939 45.48632812 105.29516602 C44.00250702 105.30666725 42.51872668 105.32709 41.03515625 105.35668945 C38.88252879 105.3996173 36.73112875 105.41556951 34.578125 105.42578125 C32.65081543 105.44765503 32.65081543 105.44765503 30.68457031 105.4699707 C25.09356227 104.75683192 20.9757015 102.35162285 17.1875 98.125 C14.07125573 93.67322247 13 90.42090966 13 85 C10.03 84.505 10.03 84.505 7 84 C7 90.93 7 97.86 7 105 C-1.68389334 105.0677425 -10.36761155 105.12279663 -19.05170918 105.15543652 C-23.08397033 105.17110102 -27.11604153 105.1923533 -31.14819336 105.22631836 C-35.0385392 105.25888429 -38.9287022 105.27684711 -42.81917381 105.28463173 C-44.30437283 105.29018026 -45.7895617 105.30101511 -47.274683 105.31719017 C-49.35302072 105.33892851 -51.43060032 105.34196856 -53.5090332 105.34057617 C-54.69261917 105.34723801 -55.87620514 105.35389984 -57.09565735 105.36076355 C-60 105 -60 105 -61.84318542 103.66621399 C-64.8422394 99.34653667 -64.22095132 94.34155337 -64.25 89.3125 C-64.270625 88.43916016 -64.29125 87.56582031 -64.3125 86.66601562 C-64.34616049 81.03209159 -63.98402568 75.91195578 -61 71 C-58.30078125 68.6875 -58.30078125 68.6875 -55.3125 67 C-54.31863281 66.4225 -53.32476562 65.845 -52.30078125 65.25 C-51.54152344 64.8375 -50.78226562 64.425 -50 64 C-54.1363213 63.86438784 -54.1363213 63.86438784 -58.125 64.75 C-58.74375 64.8325 -59.3625 64.915 -60 65 C-62.25 63.25 -62.25 63.25 -64 61 C-64 60.01 -64 59.02 -64 58 C-65.98 57.505 -65.98 57.505 -68 57 C-68.03738281 58.14597656 -68.07476562 59.29195312 -68.11328125 60.47265625 C-68.17898584 62.00263446 -68.24543159 63.53258097 -68.3125 65.0625 C-68.33505859 65.81466797 -68.35761719 66.56683594 -68.38085938 67.34179688 C-68.6287052 72.54655925 -69.52570458 76.38640878 -72 81 C-76.33691869 83.89127913 -79.90556276 83.68681549 -85 83 C-89.45266961 81.59260333 -93.7256232 79.87590205 -98 78 C-97.36497559 78.34256836 -96.72995117 78.68513672 -96.07568359 79.03808594 C-93.17381972 80.60571694 -90.27439954 82.17781614 -87.375 83.75 C-86.37597656 84.28882813 -85.37695312 84.82765625 -84.34765625 85.3828125 C-70.33608491 92.99174528 -70.33608491 92.99174528 -69 97 C-68.87218214 99.67394964 -68.95608129 102.32095857 -69 105 C-74.88981485 105.12375961 -80.77887012 105.21441514 -86.66967773 105.2746582 C-88.67274156 105.2997755 -90.67571398 105.33387595 -92.6784668 105.37719727 C-95.56061366 105.43797188 -98.44154721 105.46623732 -101.32421875 105.48828125 C-102.66355721 105.52699089 -102.66355721 105.52699089 -104.029953 105.56648254 C-108.53289876 105.56850583 -110.36640731 105.51149437 -113.97973633 102.59448242 C-114.64642334 101.73830322 -115.31311035 100.88212402 -116 100 C-116.66 99.34 -117.32 98.68 -118 98 C-117.79375 98.598125 -117.5875 99.19625 -117.375 99.8125 C-117 102 -117 102 -119 105 C-125.93 105 -132.86 105 -140 105 C-140 81.9 -140 58.8 -140 35 C-132.74 34.67 -125.48 34.34 -118 34 C-120.165625 32.68 -122.33125 31.36 -124.5625 30 C-136.25158177 22.61087872 -136.25158177 22.61087872 -139 17 C-138.66015625 14.265625 -138.66015625 14.265625 -138 12 C-131.85562198 9.6055198 -126.52211053 8.50829704 -119.9375 8.625 C-118.65057251 8.6391394 -118.65057251 8.6391394 -117.33764648 8.65356445 C-86.99470576 9.33704988 -56.58116621 16.66656703 -27 23 C-29.31 22.01 -31.62 21.02 -34 20 C-29.175412 18.25213437 -24.4849816 19.87314425 -19.60546875 20.8203125 C-15.1278162 21.04346745 -12.83347657 20.31738667 -9 18 C-7.39829079 15.59889493 -6.29502527 13.66102781 -5.1875 11.0625 C-4.75920898 10.13147461 -4.75920898 10.13147461 -4.32226562 9.18164062 C-3.53269886 7.46144761 -2.76552885 5.73102434 -2 4 C-1.34276956 2.66199015 -0.6812485 1.3259422 0 0 Z M-25 24 C-24.2575 24.70125 -23.515 25.4025 -22.75 26.125 C-20.02182777 28.97718006 -18.08697046 31.6763063 -16 35 C-15.01 34.67 -14.02 34.34 -13 34 C-15.32510488 29.47896273 -17.94616584 26.95592074 -22 24 C-22.99 24 -23.98 24 -25 24 Z M-87 31 C-86.67 32.32 -86.34 33.64 -86 35 C-84.87851563 35.14695312 -84.87851563 35.14695312 -83.734375 35.296875 C-75.75669995 36.50814503 -75.75669995 36.50814503 -72.5 38.625 C-70.74552869 41.4029129 -69.7956114 44.13924641 -68.90625 47.29296875 C-68.6071875 47.85628906 -68.308125 48.41960937 -68 49 C-66.68 49.33 -65.36 49.66 -64 50 C-64 45.05 -64 40.1 -64 35 C-49.48 35 -34.96 35 -20 35 C-20 34.67 -20 34.34 -20 34 C-24.14410935 33.30516781 -28.28840198 32.61144192 -32.43286133 31.91870117 C-33.84013768 31.68332158 -35.2473652 31.44764981 -36.65454102 31.21166992 C-38.68753214 30.87079619 -40.72070174 30.53100461 -42.75390625 30.19140625 C-43.97408447 29.98717041 -45.1942627 29.78293457 -46.45141602 29.57250977 C-54.26536067 28.31184928 -61.71810259 27.78669094 -69.625 27.75 C-71.30335938 27.7190625 -71.30335938 27.7190625 -73.015625 27.6875 C-74.63597656 27.67976563 -74.63597656 27.67976563 -76.2890625 27.671875 C-77.26568848 27.6625293 -78.24231445 27.65318359 -79.24853516 27.64355469 C-82.45638611 28.05912367 -84.36004953 29.17747781 -87 31 Z M-5 35 C0.12583611 35.10251672 4.94997778 35.03590199 10 34 C10 33.67 10 33.34 10 33 C7.87527424 32.94613371 5.75016348 32.90726929 3.625 32.875 C2.44164062 32.85179687 1.25828125 32.82859375 0.0390625 32.8046875 C-3.11153817 32.67133771 -3.11153817 32.67133771 -5 35 Z M10 34 C10 34.33 10 34.66 10 35 C11.65 35 13.3 35 15 35 C15 34.67 15 34.34 15 34 C13.35 34 11.7 34 10 34 Z M7 41 C7 53.87 7 66.74 7 80 C8.98 80.66 10.96 81.32 13 82 C13 68.8 13 55.6 13 42 C10.03 41.505 10.03 41.505 7 41 Z M43 50 C42.65988375 53.16597571 42.32916813 56.3328688 42 59.5 C41.90460938 60.386875 41.80921875 61.27375 41.7109375 62.1875 C41.16485054 67.49234474 40.9003247 72.66737152 41 78 C41.33 78 41.66 78 42 78 C43.65 69.09 45.3 60.18 47 51 C45.68 50.67 44.36 50.34 43 50 Z M-31.44921875 52.65234375 C-32.29677734 53.01650391 -33.14433594 53.38066406 -34.01757812 53.75585938 C-34.89865234 54.14580078 -35.77972656 54.53574219 -36.6875 54.9375 C-38.02651367 55.51661133 -38.02651367 55.51661133 -39.39257812 56.10742188 C-41.59892268 57.06311123 -43.80100147 58.02755469 -46 59 C-44.2475605 60.20554449 -44.2475605 60.20554449 -42 61 C-39.81340173 60.45686669 -39.81340173 60.45686669 -37.671875 59.2265625 C-36.87265625 58.8140625 -36.0734375 58.4015625 -35.25 57.9765625 C-34.425 57.53054687 -33.6 57.08453125 -32.75 56.625 C-31.90953125 56.18671875 -31.0690625 55.7484375 -30.203125 55.296875 C-28.12751882 54.21189904 -26.06081646 53.11273956 -24 52 C-27.5451057 50.8182981 -28.14017506 51.2088012 -31.44921875 52.65234375 Z M-109 54 C-105.12353894 58.34234325 -99.72077553 60.4894699 -94.625 63.125 C-93.5834375 63.67542969 -92.541875 64.22585937 -91.46875 64.79296875 C-90.46070312 65.31761719 -89.45265625 65.84226562 -88.4140625 66.3828125 C-87.03661865 67.10041748 -87.03661865 67.10041748 -85.63134766 67.83251953 C-83.0655386 68.97092173 -80.76478594 69.56970013 -78 70 C-78.15670345 68.05932374 -78.15670345 68.05932374 -79 66 C-80.94860724 64.65179657 -80.94860724 64.65179657 -83.5 63.6875 C-84.47839844 63.275 -85.45679687 62.8625 -86.46484375 62.4375 C-87.63144531 61.963125 -88.79804687 61.48875 -90 61 C-91.48110823 60.37651693 -92.96153996 59.75142516 -94.44140625 59.125 C-95.98132722 58.47810963 -97.52169153 57.8322736 -99.0625 57.1875 C-99.81273437 56.87321045 -100.56296875 56.5589209 -101.3359375 56.23510742 C-105.0438287 54.58623197 -105.0438287 54.58623197 -109 54 Z M-13 59 C-14.33927721 60.45287661 -15.67126847 61.91247259 -17 63.375 C-18.11375 64.59316406 -18.11375 64.59316406 -19.25 65.8359375 C-21.20959813 67.79533992 -21.20959813 67.79533992 -21 70 C-17.51127585 68.83709195 -16.90023136 67.86032391 -14.8125 64.9375 C-14.01779297 63.83728516 -14.01779297 63.83728516 -13.20703125 62.71484375 C-12.80871094 62.14894531 -12.41039062 61.58304688 -12 61 C-12.33 60.34 -12.66 59.68 -13 59 Z M83 62 C82.97421875 63.25554687 82.9484375 64.51109375 82.921875 65.8046875 C82.51002131 79.55099077 81.00314372 88.99685628 71 99 C77.13634411 101.49999204 82.30677443 102.66135489 89 104 C89 90.8 89 77.6 89 64 C87.02 63.34 85.04 62.68 83 62 Z M194 66 C195 68 195 68 195 68 Z M193 69 C194 72 194 72 194 72 Z M216 69 C217 72 217 72 217 72 Z M192 72 C190.99619084 74.79035046 189.9968055 77.58214855 189 80.375 C188.71382813 81.1690625 188.42765625 81.963125 188.1328125 82.78125 C187.86210937 83.54179687 187.59140625 84.30234375 187.3125 85.0859375 C187.06113281 85.7876709 186.80976563 86.4894043 186.55078125 87.21240234 C185.9018491 89.00680111 185.9018491 89.00680111 186 91 C186.99 91 187.98 91 189 91 C189.69951063 88.586238 190.38483919 86.16989766 191.0625 83.75 C191.26166016 83.06808594 191.46082031 82.38617188 191.66601562 81.68359375 C192.67685735 78.0303763 193.11883567 75.61094628 192 72 Z M-26.84765625 74.58203125 C-35.55725943 83.26290042 -35.55725943 83.26290042 -43 93 C-42.67 93.99 -42.34 94.98 -42 96 C-38.67237468 95.76944859 -37.86805601 94.85196528 -35.59765625 92.3046875 C-34.74170644 91.16959461 -33.89710504 90.02587809 -33.0625 88.875 C-32.40435303 87.99074341 -32.40435303 87.99074341 -31.73291016 87.08862305 C-30.86839935 85.92347564 -30.00854692 84.75485472 -29.15380859 83.58251953 C-28.19282666 82.26447364 -27.21733344 80.95702305 -26.23828125 79.65234375 C-23.7879057 76.64511621 -23.7879057 76.64511621 -23 73 C-25.15220411 72.78320182 -25.15220411 72.78320182 -26.84765625 74.58203125 Z M217 74 C218 76 218 76 218 76 Z M129 78 C125.37 80.31 121.74 82.62 118 85 C118.99 85.495 118.99 85.495 120 86 C122.93691775 84.77601475 122.93691775 84.77601475 126.125 83.0625 C127.22070312 82.49660156 128.31640625 81.93070312 129.4453125 81.34765625 C130.28835938 80.90292969 131.13140625 80.45820313 132 80 C131.01 79.34 130.02 78.68 129 78 Z M40 81 C41 84 41 84 41 84 Z M159 91 C159 95.62 159 100.24 159 105 C147.12 105 135.24 105 123 105 C123 105.66 123 106.32 123 107 C125.97 108.65 128.94 110.3 132 112 C132 112.66 132 113.32 132 114 C135.62391565 114.65201483 139.2493067 115.29545015 142.875 115.9375 C143.88820313 116.11990234 144.90140625 116.30230469 145.9453125 116.49023438 C156.11300891 118.28261676 165.98802598 119.18044294 176.3125 119.1875 C177.75592773 119.20586914 177.75592773 119.20586914 179.22851562 119.22460938 C185.93954984 119.426725 185.93954984 119.426725 192 117 C193.31455797 114.70421702 193.31455797 114.70421702 193 112 C191.0758664 109.37743602 191.0758664 109.37743602 188.3125 107.125 C187.42175781 106.32320312 186.53101563 105.52140625 185.61328125 104.6953125 C183.21645364 102.76144688 183.21645364 102.76144688 180.85546875 103.1796875 C180.24316406 103.45039063 179.63085938 103.72109375 179 104 C174.41783485 105.52738838 169.80886509 105.60397582 165 106 C165 102.04 165 98.08 165 94 C163.02 93.01 161.04 92.02 159 91 Z M96 105 C98.62890497 106.39073768 101.12122047 107.43969204 104 108.1875 C104.66 108.36667969 105.32 108.54585938 106 108.73046875 C108.26540976 109.03576811 109.835092 108.68136613 112 108 C107.14640505 103.98323176 101.95027665 104.71863841 96 105 Z " fill="#000000" transform="translate(200,188)"/>
<path d="M0 0 C4.62 0 9.24 0 14 0 C14 4.95 14 9.9 14 15 C9.38 15 4.76 15 0 15 C0 10.05 0 5.1 0 0 Z " fill="#000000" transform="translate(108,299)"/>
<path d="M0 0 C4.62 0 9.24 0 14 0 C14 4.95 14 9.9 14 15 C9.38 15 4.76 15 0 15 C0 10.05 0 5.1 0 0 Z " fill="#000000" transform="translate(123,299)"/>
<path d="M0 0 C0.02685095 2.47923801 0.04676547 4.9581884 0.0625 7.4375 C0.07087891 8.14455078 0.07925781 8.85160156 0.08789062 9.58007812 C0.09653588 11.38693559 0.05220011 13.19387603 0 15 C-1 16 -1 16 -4.25 16.1875 C-7.75416947 16.01229153 -9.92900727 15.62581968 -13 14 C-14.60682055 10.7863589 -14.46150508 7.48539659 -14 4 C-10.9733152 -1.50306327 -5.53719757 -0.38041815 0 0 Z M-8 7 C-8 7.99 -8 8.98 -8 10 C-7.34 10 -6.68 10 -6 10 C-6 9.01 -6 8.02 -6 7 C-6.66 7 -7.32 7 -8 7 Z " fill="#000000" transform="translate(198,299)"/>
<path d="M0 0 C4.29 0 8.58 0 13 0 C13 4.95 13 9.9 13 15 C8.71 15 4.42 15 0 15 C0 10.05 0 5.1 0 0 Z " fill="#000000" transform="translate(78,299)"/>
<path d="M0 0 C2.4375 1.5625 2.4375 1.5625 4 4 C4.4495791 7.59663278 4.36454848 10.05217395 3.0625 13.4375 C0.12949973 15.6594699 -2.34660438 15.39496545 -5.94140625 15.3359375 C-8 15 -8 15 -10 13 C-10.30078125 10.72265625 -10.30078125 10.72265625 -10.3125 8.0625 C-10.32925781 7.18722656 -10.34601563 6.31195313 -10.36328125 5.41015625 C-10 3 -10 3 -8.6953125 1.2109375 C-5.8231315 -0.84062035 -3.39723083 -0.41720379 0 0 Z M-4 6 C-3 10 -3 10 -3 10 Z " fill="#000000" transform="translate(179,299)"/>
<path d="M0 0 C0.99 0.66 1.98 1.32 3 2 C3.36328125 4.53125 3.36328125 4.53125 3.3125 7.5 C3.30863281 8.4796875 3.30476562 9.459375 3.30078125 10.46875 C3 13 3 13 1 15 C-1.09375 15.265625 -1.09375 15.265625 -3.5 15.25 C-4.2940625 15.25515625 -5.088125 15.2603125 -5.90625 15.265625 C-8 15 -8 15 -10 13 C-10.30078125 10.46875 -10.30078125 10.46875 -10.3125 7.5 C-10.32925781 6.5203125 -10.34601563 5.540625 -10.36328125 4.53125 C-10.24339844 3.6959375 -10.12351563 2.860625 -10 2 C-6.31282562 -0.45811625 -4.35654296 -0.31118164 0 0 Z M-4 6 C-3 10 -3 10 -3 10 Z " fill="#000000" transform="translate(149,299)"/>
<path d="M0 0 C0 4.95 0 9.9 0 15 C-1.588125 15.061875 -3.17625 15.12375 -4.8125 15.1875 C-5.70582031 15.22230469 -6.59914063 15.25710938 -7.51953125 15.29296875 C-10 15 -10 15 -11.796875 13.76953125 C-14.03846858 10.472642 -13.61072899 6.81350545 -13 3 C-9.9751162 -1.34005066 -4.7741714 -0.21062521 0 0 Z " fill="#000000" transform="translate(106,299)"/>
<path d="M0 0 C2.31 0 4.62 0 7 0 C8 1 8 1 8.09765625 2.84765625 C8.04882812 5.92382812 8.04882812 5.92382812 8 9 C9.98 9 11.96 9 14 9 C14 10.98 14 12.96 14 15 C9.38 15 4.76 15 0 15 C0 10.05 0 5.1 0 0 Z " fill="#000000" transform="translate(154,299)"/>
<path d="M0 0 C4.62 0 9.24 0 14 0 C12.68 4.95 11.36 9.9 10 15 C7.69 15 5.38 15 3 15 C2.49564306 13.0636296 1.99666126 11.12585854 1.5 9.1875 C1.2215625 8.10855469 0.943125 7.02960938 0.65625 5.91796875 C0 3 0 3 0 0 Z " fill="#000000" transform="translate(199,299)"/>
<path d="M0 0 C4.29 0 8.58 0 13 0 C13 2.31 13 4.62 13 7 C12.01 7 11.02 7 10 7 C10 9.64 10 12.28 10 15 C7.69 15 5.38 15 3 15 C3 12.36 3 9.72 3 7 C2.01 7 1.02 7 0 7 C0 4.69 0 2.38 0 0 Z " fill="#000000" transform="translate(63,299)"/>
</svg>
